<svg width="43" height="28" viewBox="0 0 43 28" fill="none" xmlns="http://www.w3.org/2000/svg">
<path d="M43 0H0V28H43V0Z" fill="#2557D6"/>
<path d="M0.0138254 13.1984H2.07788L2.54327 12.1058H3.5852L4.04938 13.1984H8.11056V12.3632L8.47308 13.202H10.5814L10.9439 12.3507V13.1985H21.0367L21.0321 11.405H21.2273C21.364 11.4096 21.404 11.4219 21.404 11.6417V13.1985H26.624V12.781C27.0451 13.0005 27.7 13.1985 28.5616 13.1985H30.7577L31.2277 12.1059H32.2696L32.7292 13.1985H36.9611V12.1607L37.6021 13.1985H40.9933V6.33789H37.6371V7.1481L37.1673 6.33789H33.7234V7.1481L33.2918 6.33789H28.6401C27.8615 6.33789 27.177 6.44367 26.6241 6.73846V6.33789H23.414V6.73846C23.0622 6.4346 22.5828 6.33789 22.0496 6.33789H10.3216L9.53474 8.10979L8.72662 6.33789H5.03275V7.1481L4.6269 6.33789H1.4766L0.0135498 9.59967V13.1983H0.0137152L0.0138254 13.1984ZM13.0428 12.2089H11.8044L11.7999 8.35641L10.0482 12.2088H8.98748L7.23121 8.35299V12.2088H4.77415L4.30997 11.1117H1.79463L1.32577 12.2088H0.0136601L2.17695 7.28995H3.97187L6.02644 11.9471V7.28995H7.99815L9.57912 10.6268L11.0314 7.28995H13.0428L13.0428 12.2089ZM3.89706 10.0908L3.07024 8.12983L2.24801 10.0908H3.89706ZM17.9713 12.2088H13.9357V7.28989H17.9713V8.31419H15.1438V9.20083H17.9035V10.2091H15.1438V11.1915H17.9712L17.9713 12.2088ZM23.6583 8.61468C23.6583 9.39891 23.1205 9.80412 22.8072 9.92576C23.0715 10.0236 23.2973 10.1967 23.4048 10.34C23.5753 10.5847 23.6048 10.8032 23.6048 11.2425V12.2088H22.3862L22.3817 11.5885C22.3817 11.2925 22.4108 10.8668 22.191 10.6302C22.0145 10.4571 21.7454 10.4196 21.3105 10.4196H20.0137V12.2088H18.8056V7.28989H21.5841C22.2015 7.28989 22.6564 7.30574 23.0469 7.52548C23.4291 7.74523 23.6583 8.06599 23.6583 8.61468ZM22.1313 9.34504C21.9652 9.44315 21.769 9.4464 21.5337 9.4464H20.0662V8.35383H21.5536C21.7641 8.35383 21.9839 8.36302 22.1266 8.44254C22.2833 8.51422 22.3802 8.66671 22.3802 8.87738C22.3802 9.09242 22.2879 9.2654 22.1313 9.34504ZM25.5958 12.2088H24.3632V7.28989H25.5958V12.2088ZM39.9049 12.2088H38.193L35.9032 8.51685V12.2088H33.443L32.9729 11.1116H30.4634L30.0074 12.2088H28.5935C28.0064 12.2088 27.2628 12.0824 26.8419 11.6647C26.4174 11.2471 26.1965 10.6814 26.1965 9.78688C26.1965 9.05736 26.3285 8.39046 26.8476 7.86344C27.2382 7.47088 27.8499 7.28989 28.6823 7.28989H29.8519V8.34387H28.7068C28.2659 8.34387 28.0169 8.40771 27.7772 8.63524C27.5713 8.84238 27.43 9.23388 27.43 9.74947C27.43 10.2764 27.5376 10.6564 27.7621 10.9046C27.948 11.0993 28.2861 11.1583 28.604 11.1583H29.1465L30.8491 7.29006H32.6593L34.7046 11.9426V7.29011H36.544L38.6675 10.7159V7.29011H39.9049V12.2088ZM32.5618 10.0908L31.7258 8.12989L30.8944 10.0908H32.5618ZM42.9832 20.0633C42.6898 20.4809 42.118 20.6927 41.3439 20.6927H39.011V19.6376H41.3345C41.5649 19.6376 41.7262 19.6081 41.8233 19.5158C41.9151 19.4333 41.9669 19.3168 41.9662 19.195C41.9662 19.0516 41.9075 18.9378 41.8186 18.8696C41.7309 18.7944 41.6034 18.7604 41.3929 18.7604C40.2587 18.7229 38.8435 18.7944 38.8435 17.2375C38.8435 16.524 39.309 15.7728 40.5767 15.7728H42.983V14.7939H40.7472C40.0726 14.7939 39.5824 14.9513 39.2353 15.1957V14.7939H35.9284C35.3995 14.7939 34.7788 14.9215 34.4852 15.1957V14.7939H28.5799V15.1957C28.11 14.8657 27.317 14.7939 26.9509 14.7939H23.0558V15.1957C22.6839 14.8452 21.8572 14.7939 21.3531 14.7939H16.9937L15.9962 15.8447L15.0618 14.7939H8.54955V21.6589H14.9389L15.9668 20.5915L16.9352 21.6589L20.8736 21.6623V20.0474H21.2607C21.7832 20.0553 22.3996 20.0347 22.9434 19.8059V21.6587H26.192V19.8694H26.3486C26.5486 19.8694 26.5683 19.8775 26.5683 20.0718V21.6585H36.4368C37.0633 21.6585 37.7182 21.5025 38.081 21.2192V21.6585H41.2111C41.8625 21.6585 42.4986 21.5696 42.9826 21.3421L42.9827 20.0631L42.9832 20.0633ZM23.416 17.4226C23.416 18.7894 22.3683 19.0716 21.3124 19.0716H19.805V20.7218H17.4571L15.9695 19.093L14.4236 20.7218H9.63833V15.8017H14.4971L15.9834 17.4145L17.5201 15.8017H21.3802C22.3388 15.8017 23.416 16.0601 23.416 17.4226ZM13.8116 19.6869H10.8414V18.7081H13.4936V17.7042H10.8414V16.8097H13.8701L15.1914 18.2435L13.8116 19.6869ZM18.5973 20.2503L16.7425 18.2461L18.5973 16.3057V20.2503ZM21.3403 18.0626H19.7792V16.8097H21.3543C21.7905 16.8097 22.0932 16.9827 22.0932 17.4129C22.0932 17.8384 21.8045 18.0626 21.3403 18.0626ZM29.5191 15.8017H33.5511V16.8192H30.7222V17.7137H33.482V18.7176H30.7222V19.6965L33.551 19.7009V20.7218H29.519L29.5191 15.8017ZM27.969 18.4353C28.2379 18.5319 28.4577 18.705 28.5607 18.8483C28.7313 19.0886 28.756 19.3128 28.7609 19.7464V20.7218H27.5479V20.1063C27.5479 19.8103 27.5772 19.372 27.3527 19.1432C27.1762 18.967 26.9071 18.9248 26.4664 18.9248H25.1753V20.7219H23.9614V15.8018H26.7506C27.3621 15.8018 27.8075 15.8281 28.2041 16.034C28.5853 16.2582 28.8252 16.5652 28.8252 17.1266C28.8251 17.9118 28.2869 18.3125 27.969 18.4353ZM27.2862 17.8134C27.1246 17.9067 26.9248 17.9148 26.6898 17.9148H25.2222V16.8098H26.7097C26.9248 16.8098 27.14 16.8143 27.2862 16.8987C27.4428 16.9783 27.5364 17.1308 27.5364 17.3412C27.5364 17.5517 27.4427 17.7212 27.2862 17.8134ZM38.1917 18.1268C38.4271 18.3636 38.553 18.6628 38.553 19.1691C38.553 20.2275 37.8737 20.7216 36.6552 20.7216H34.3023V19.6666H36.6458C36.875 19.6666 37.0374 19.6372 37.1392 19.5448C37.2223 19.4687 37.2819 19.3581 37.2819 19.2239C37.2819 19.0805 37.2174 18.9668 37.1345 18.8985C37.0421 18.8235 36.9147 18.7894 36.7043 18.7894C35.5746 18.7519 34.1597 18.8235 34.1597 17.2666C34.1597 16.553 34.6203 15.8018 35.8869 15.8018H38.3088V16.849H36.0928C35.8731 16.849 35.7303 16.8571 35.6088 16.9379C35.4765 17.0175 35.4274 17.1358 35.4274 17.2917C35.4274 17.4773 35.5397 17.6036 35.6918 17.6583C35.8192 17.7014 35.9561 17.714 36.1618 17.714L36.8121 17.7311C37.4679 17.7466 37.9181 17.857 38.1917 18.1268ZM42.9853 16.8097H40.7836C40.5639 16.8097 40.4177 16.8177 40.2948 16.8985C40.1673 16.9782 40.1183 17.0964 40.1183 17.2526C40.1183 17.4382 40.2258 17.5644 40.3824 17.619C40.5099 17.6622 40.6467 17.6748 40.8479 17.6748L41.5027 17.6918C42.1633 17.7077 42.6043 17.8183 42.8732 18.0879C42.9223 18.1254 42.9516 18.1675 42.9853 18.2097V16.8097H42.9853Z" fill="white"/>
</svg>
