<svg width="42" height="28" viewBox="0 0 42 28" fill="none" xmlns="http://www.w3.org/2000/svg">
<path d="M42 0H0V28H42V0Z" fill="#16366F"/>
<path d="M24.1775 13.9998C24.1775 19.5518 19.8499 24.0518 14.5116 24.0518C9.17327 24.0518 4.84619 19.5515 4.84619 13.9998C4.84619 8.44831 9.17338 3.94775 14.5116 3.94775C19.8497 3.94775 24.1775 8.44847 24.1775 13.9998Z" fill="#D9222A"/>
<path d="M27.4879 3.94775C24.9905 3.94775 22.7148 4.93313 20.9994 6.54985C20.65 6.87963 20.3238 7.23512 20.0235 7.61362H21.9763C22.2437 7.9517 22.4897 8.30735 22.7131 8.67835H19.2866C19.0806 9.02113 18.8946 9.37662 18.7298 9.7428H23.2697C23.4255 10.0892 23.5621 10.4445 23.6789 10.807H18.3206C18.208 11.1562 18.1142 11.5116 18.0397 11.8715H23.9595C24.1043 12.571 24.1773 13.2845 24.1771 14C24.1771 15.1163 24.0019 16.1903 23.6788 17.1931H18.3205C18.437 17.5559 18.5736 17.9113 18.7294 18.2577H23.2696C23.1046 18.6239 22.9185 18.9794 22.7124 19.3224H19.2865C19.5102 19.6936 19.7566 20.0492 20.0234 20.3862H21.9757C21.6758 20.7654 21.3495 21.1212 20.9995 21.4508C22.715 23.0674 24.9905 24.0523 27.4879 24.0523C32.8261 24.0522 37.1539 19.552 37.1539 14.0003C37.1539 8.44898 32.8263 3.94826 27.4879 3.94826" fill="#EE9F2D"/>
<path d="M35.8659 19.6034C35.8659 19.4241 36.0054 19.2785 36.1779 19.2785C36.3505 19.2785 36.49 19.4241 36.49 19.6034C36.49 19.7825 36.3505 19.9281 36.1779 19.9281C36.0055 19.9281 35.8658 19.7826 35.8659 19.6034ZM36.1779 19.8502C36.3091 19.8502 36.4153 19.7396 36.4153 19.6034C36.4153 19.4671 36.3091 19.3568 36.1782 19.3568H36.1779C36.0472 19.3565 35.941 19.4667 35.9408 19.6027V19.6034C35.9407 19.7396 36.0467 19.8502 36.1777 19.8503C36.1777 19.8502 36.1778 19.8502 36.1779 19.8502ZM36.1358 19.7461H36.0718V19.4608H36.1875C36.2118 19.4608 36.2364 19.4608 36.2578 19.475C36.28 19.4906 36.2926 19.5181 36.2926 19.5466C36.2926 19.5785 36.2744 19.6084 36.245 19.6201L36.2955 19.7461H36.2247L36.1827 19.6332H36.1358V19.7461H36.1358ZM36.1358 19.5842H36.1712C36.1845 19.5842 36.1984 19.5853 36.2103 19.5786C36.2208 19.5716 36.2262 19.5585 36.2262 19.5459C36.2262 19.535 36.2197 19.5224 36.2107 19.517C36.1995 19.5097 36.1818 19.5114 36.1699 19.5114H36.1358V19.5842ZM12.255 15.1007C12.1449 15.0874 12.0965 15.0838 12.0208 15.0838C11.4261 15.0838 11.125 15.296 11.125 15.7148C11.125 15.9731 11.272 16.1374 11.5012 16.1374C11.9286 16.1374 12.2367 15.7141 12.255 15.1007ZM13.0181 16.9485H12.1487L12.1687 16.5186C11.9035 16.8584 11.5496 17.0198 11.0689 17.0198C10.5001 17.0198 10.1102 16.5578 10.1102 15.887C10.1102 14.8776 10.7884 14.2887 11.9526 14.2887C12.0715 14.2887 12.2241 14.2999 12.3802 14.3206C12.4128 14.1839 12.4213 14.1254 12.4213 14.0518C12.4213 13.777 12.2384 13.6745 11.7482 13.6745C11.2349 13.6684 10.8115 13.8017 10.6377 13.8612C10.6486 13.7923 10.783 12.9283 10.783 12.9283C11.306 12.769 11.6509 12.709 12.039 12.709C12.94 12.709 13.4172 13.1297 13.4164 13.9249C13.4181 14.1379 13.3842 14.4009 13.3313 14.7464C13.2402 15.3474 13.0448 16.6346 13.0181 16.9485ZM9.67112 16.9485H8.62176L9.22285 13.0286L7.88073 16.9485H7.16566L7.07735 13.051L6.44552 16.9485H5.46326L6.28376 11.8494H7.79253L7.88407 14.7035L8.80441 11.8494H10.4826L9.67112 16.9485ZM28.7854 15.1007C28.6757 15.0874 28.627 15.0838 28.5516 15.0838C27.9571 15.0838 27.6559 15.296 27.6559 15.7148C27.6559 15.9731 27.8027 16.1374 28.0319 16.1374C28.4594 16.1374 28.7677 15.7141 28.7854 15.1007ZM29.5491 16.9485H28.6798L28.6994 16.5186C28.4342 16.8584 28.0802 17.0198 27.5999 17.0198C27.0309 17.0198 26.6414 16.5578 26.6414 15.887C26.6414 14.8776 27.3192 14.2887 28.4836 14.2887C28.6025 14.2887 28.7548 14.2999 28.9108 14.3206C28.9433 14.1839 28.9519 14.1254 28.9519 14.0518C28.9519 13.777 28.7693 13.6745 28.279 13.6745C27.7657 13.6684 27.3428 13.8017 27.1682 13.8612C27.1792 13.7923 27.3141 12.9283 27.3141 12.9283C27.8371 12.769 28.1817 12.709 28.5693 12.709C29.4708 12.709 29.948 13.1297 29.9471 13.9249C29.9489 14.1379 29.915 14.4009 29.8621 14.7464C29.7715 15.3474 29.5756 16.6346 29.5491 16.9485ZM17.682 16.8855C17.3948 16.9795 17.1709 17.0198 16.9281 17.0198C16.3917 17.0198 16.0989 16.6992 16.0989 16.1089C16.0912 15.9257 16.1761 15.4436 16.2427 15.0036C16.3032 14.6162 16.6977 12.1739 16.6977 12.1739H17.7407L17.6189 12.8016H18.2489L18.1066 13.7982H17.4743C17.3532 14.5868 17.1807 15.5692 17.1787 15.6994C17.1787 15.9131 17.2884 16.0064 17.5378 16.0064C17.6574 16.0064 17.75 15.9938 17.8208 15.9672L17.682 16.8855ZM20.8799 16.8519C20.5217 16.9657 20.1759 17.0208 19.8095 17.0199C18.642 17.0187 18.0333 16.3845 18.0333 15.1701C18.0333 13.7525 18.8076 12.709 19.8587 12.709C20.7186 12.709 21.2679 13.2933 21.2679 14.2096C21.2679 14.5136 21.2302 14.8104 21.1393 15.2295H19.0622C18.992 15.831 19.3621 16.0816 19.9688 16.0816C20.3422 16.0816 20.6789 16.0016 21.0534 15.8205L20.8799 16.8519ZM20.2937 14.3935C20.2995 14.3071 20.4043 13.6533 19.8084 13.6533C19.4761 13.6533 19.2386 13.9167 19.1418 14.3935H20.2937ZM13.648 14.1125C13.648 14.6371 13.8925 14.9987 14.4472 15.2704C14.8721 15.4781 14.9379 15.5397 14.9379 15.7279C14.9379 15.9864 14.7505 16.1031 14.3352 16.1031C14.0223 16.1031 13.7311 16.0523 13.3952 15.9396C13.3952 15.9396 13.2572 16.8535 13.2509 16.8972C13.4894 16.9513 13.7021 17.0014 14.3429 17.0199C15.45 17.0199 15.9614 16.5814 15.9614 15.6339C15.9614 15.0641 15.7473 14.7297 15.2217 14.4784C14.7817 14.2684 14.7312 14.2215 14.7312 14.0278C14.7312 13.8036 14.9056 13.6893 15.2448 13.6893C15.4507 13.6893 15.7321 13.7121 15.9986 13.7516L16.1481 12.7898C15.8763 12.745 15.4644 12.709 15.2246 12.709C14.0507 12.709 13.6444 13.3467 13.648 14.1125ZM25.9836 12.818C26.2751 12.818 26.5468 12.8975 26.9213 13.0935L27.0929 11.9869C26.9392 11.9241 26.398 11.5557 25.9397 11.5557C25.2374 11.5557 24.6438 11.918 24.2263 12.5161C23.6173 12.3063 23.367 12.7303 23.0601 13.1526L22.7875 13.2186C22.8081 13.0796 22.8268 12.9414 22.8205 12.8017H21.8569C21.7252 14.085 21.4919 15.3849 21.3092 16.6699L21.2616 16.9485H22.3114C22.4866 15.7645 22.5827 15.0064 22.641 14.4934L23.0363 14.2647C23.0953 14.0362 23.2802 13.959 23.651 13.9683C23.6012 14.2488 23.5762 14.5334 23.5766 14.8186C23.5766 16.1752 24.2804 17.0199 25.41 17.0199C25.701 17.0199 25.9507 16.98 26.3373 16.8711L26.522 15.7085C26.1742 15.8866 25.8888 15.9704 25.6303 15.9704C25.0203 15.9704 24.6512 15.5021 24.6512 14.7281C24.6512 13.6053 25.2002 12.818 25.9836 12.818Z" fill="black"/>
<path d="M9.97288 16.6452H8.92336L9.52482 12.7259L8.18271 16.6452H7.46752L7.37911 12.7483L6.74733 16.6452H5.76501L6.58552 11.5469H8.09429L8.13672 14.7031L9.15463 11.5469H10.7844L9.97288 16.6452Z" fill="white"/>
<path d="M34.8664 11.8496L34.6338 13.3229C34.3468 12.9302 34.0386 12.646 33.6316 12.646C33.1021 12.646 32.6202 13.0634 32.3048 13.6778C31.8655 13.583 31.4111 13.4223 31.4111 13.4223L31.4109 13.426C31.4463 13.0826 31.4604 12.873 31.4573 12.8018H30.4934C30.3622 14.0852 30.1289 15.3851 29.9465 16.67L29.8984 16.9487H30.948C31.0898 15.9913 31.1984 15.1963 31.2782 14.5658C31.6368 14.2289 31.8163 13.9349 32.1786 13.9545C32.0182 14.358 31.9242 14.8227 31.9242 15.2994C31.9242 16.3362 32.4286 17.02 33.1914 17.02C33.5759 17.02 33.8709 16.8822 34.1588 16.5625L34.1097 16.948H35.1022L35.9014 11.8496H34.8664ZM33.5542 15.9904C33.1969 15.9904 33.0166 15.7155 33.0166 15.1729C33.0166 14.358 33.3543 13.7799 33.8303 13.7799C34.1908 13.7799 34.386 14.0658 34.386 14.5924C34.3861 15.4145 34.0431 15.9904 33.5542 15.9904Z" fill="black"/>
<path d="M12.5564 14.7984C12.4465 14.7851 12.3978 14.7816 12.3224 14.7816C11.7276 14.7816 11.4267 14.9937 11.4267 15.4125C11.4267 15.6703 11.5737 15.8351 11.8026 15.8351C12.2304 15.8351 12.5384 15.4118 12.5564 14.7984ZM13.3199 16.6455H12.4505L12.4703 16.2163C12.2053 16.5554 11.851 16.7175 11.3707 16.7175C10.8017 16.7175 10.412 16.2555 10.412 15.5847C10.412 14.5749 11.09 13.9864 12.2544 13.9864C12.3733 13.9864 12.5259 13.9976 12.6818 14.0183C12.7143 13.8816 12.7228 13.8231 12.7228 13.7491C12.7228 13.4742 12.5403 13.3722 12.05 13.3722C11.5365 13.3662 11.1133 13.4994 10.9392 13.5582C10.9502 13.4896 11.0846 12.6265 11.0846 12.6265C11.6074 12.4665 11.9526 12.4064 12.3403 12.4064C13.2416 12.4064 13.719 12.8274 13.7181 13.6219C13.7197 13.8358 13.6856 14.0986 13.6328 14.4437C13.542 15.0443 13.3464 16.3323 13.3199 16.6455ZM27.3942 11.6843L27.2223 12.7913C26.8481 12.5955 26.5762 12.5157 26.285 12.5157C25.5015 12.5157 24.9523 13.3029 24.9523 14.4257C24.9523 15.1997 25.3216 15.6678 25.9314 15.6678C26.1899 15.6678 26.475 15.5843 26.8228 15.4059L26.6386 16.5679C26.2518 16.6776 26.0024 16.7175 25.7111 16.7175C24.5816 16.7175 23.8776 15.8728 23.8776 14.5162C23.8776 12.6934 24.85 11.4194 26.2408 11.4194C26.6989 11.4195 27.2403 11.6215 27.3942 11.6843ZM29.0872 14.7984C28.9773 14.7851 28.9289 14.7816 28.8532 14.7816C28.2586 14.7816 27.9575 14.9937 27.9575 15.4125C27.9575 15.6703 28.1045 15.8351 28.3336 15.8351C28.761 15.8351 29.0692 15.4118 29.0872 14.7984ZM29.8507 16.6455H28.9811L29.001 16.2163C28.7359 16.5554 28.3818 16.7175 27.9015 16.7175C27.3327 16.7175 26.9428 16.2555 26.9428 15.5847C26.9428 14.5749 27.621 13.9864 28.785 13.9864C28.9042 13.9864 29.0565 13.9976 29.2126 14.0183C29.2449 13.8816 29.2537 13.8231 29.2537 13.7491C29.2537 13.4742 29.071 13.3722 28.5808 13.3722C28.0675 13.3662 27.6441 13.4994 27.47 13.5582C27.481 13.4896 27.6156 12.6265 27.6156 12.6265C28.1384 12.4665 28.4834 12.4064 28.8711 12.4064C29.7726 12.4064 30.2498 12.8274 30.2486 13.6219C30.2505 13.8358 30.2166 14.0986 30.1636 14.4437C30.073 15.0443 29.8769 16.3323 29.8507 16.6455ZM17.9836 16.5826C17.6961 16.6767 17.4722 16.7175 17.2297 16.7175C16.6932 16.7175 16.4005 16.3969 16.4005 15.8066C16.3931 15.6229 16.4779 15.1413 16.5445 14.7013C16.6048 14.3135 16.9993 11.8715 16.9993 11.8715H18.0421L17.9205 12.4993H18.4558L18.3134 13.4955H17.7763C17.6551 14.2846 17.4821 15.2661 17.4803 15.3966C17.4803 15.6111 17.5903 15.7037 17.8395 15.7037C17.9591 15.7037 18.0516 15.6915 18.1224 15.6649L17.9836 16.5826ZM21.1816 16.5495C20.8235 16.6634 20.4773 16.7183 20.1111 16.7175C18.9435 16.7164 18.3349 16.0822 18.3349 14.8677C18.3349 13.4497 19.1092 12.4065 20.1603 12.4065C21.0202 12.4065 21.5694 12.9905 21.5694 13.9073C21.5694 14.2115 21.5318 14.5083 21.4412 14.9272H19.3641C19.2937 15.5287 19.6639 15.7795 20.2707 15.7795C20.6438 15.7795 20.9808 15.6992 21.355 15.5177L21.1816 16.5495ZM20.5951 14.0905C20.6014 14.0043 20.706 13.3503 20.1098 13.3503C19.7778 13.3503 19.5401 13.6145 19.4434 14.0905H20.5951ZM13.9494 13.8102C13.9494 14.3347 14.194 14.6959 14.7486 14.968C15.1735 15.1757 15.2392 15.2375 15.2392 15.4256C15.2392 15.6841 15.0517 15.8008 14.6369 15.8008C14.3236 15.8008 14.0324 15.7499 13.6963 15.6372C13.6963 15.6372 13.5588 16.5512 13.5526 16.5948C13.7906 16.649 14.0035 16.6984 14.6442 16.7175C15.7517 16.7175 16.2628 16.2791 16.2628 15.3318C16.2628 14.7617 16.049 14.4274 15.5231 14.1761C15.0833 13.9656 15.0324 13.9194 15.0324 13.7255C15.0324 13.5015 15.2071 13.3863 15.5462 13.3863C15.7519 13.3863 16.0333 13.4098 16.3002 13.4493L16.4494 12.4872C16.178 12.4424 15.7661 12.4065 15.5262 12.4065C14.3521 12.4065 13.9461 13.0437 13.9494 13.8102ZM35.4044 16.6455H34.4116L34.461 16.2595C34.1731 16.5796 33.8781 16.7175 33.4936 16.7175C32.7307 16.7175 32.2266 16.0336 32.2266 14.9969C32.2266 13.6177 33.0085 12.4549 33.934 12.4549C34.3409 12.4549 34.6491 12.6279 34.9357 13.0203L35.1686 11.5471H36.2036L35.4044 16.6455ZM33.8566 15.6874C34.3453 15.6874 34.6885 15.1115 34.6885 14.29C34.6885 13.7633 34.4931 13.4775 34.1326 13.4775C33.6567 13.4775 33.3186 14.0552 33.3186 14.8705C33.3186 15.4129 33.4994 15.6874 33.8566 15.6874ZM30.7958 12.4993C30.6645 13.7827 30.4311 15.0826 30.2486 16.3669L30.2007 16.6455H31.2502C31.6255 14.1101 31.7164 13.6149 32.3049 13.677C32.3987 13.1581 32.5732 12.7035 32.7033 12.4741C32.2638 12.3789 32.0183 12.6373 31.697 13.1279C31.7224 12.9159 31.7689 12.7098 31.7597 12.4993H30.7958ZM22.1578 12.4993C22.0261 13.7827 21.7927 15.0826 21.6104 16.3669L21.5626 16.6455H22.6126C22.9875 14.1101 23.0782 13.6149 23.6663 13.677C23.7606 13.1581 23.9351 12.7035 24.0648 12.4741C23.6257 12.3789 23.3801 12.6373 23.059 13.1279C23.0844 12.9159 23.1304 12.7098 23.1216 12.4993H22.1578ZM35.8654 16.3209C35.8654 16.1409 36.0052 15.9961 36.1775 15.9961C36.3497 15.9959 36.4894 16.141 36.4896 16.32V16.3209C36.4895 16.5001 36.3498 16.6453 36.1775 16.6455C36.0052 16.6453 35.8655 16.5001 35.8654 16.3209ZM36.1775 16.5675C36.3085 16.5676 36.4146 16.4572 36.4146 16.3211V16.3209C36.4148 16.1847 36.3086 16.0742 36.1777 16.0741H36.1775C36.0464 16.0741 35.9402 16.1846 35.9401 16.3209C35.9403 16.4571 36.0465 16.5675 36.1775 16.5675ZM36.1353 16.4628H36.0713V16.1781H36.1873C36.2113 16.1781 36.2362 16.1785 36.2571 16.1923C36.2795 16.2082 36.2923 16.2353 36.2923 16.2637C36.2923 16.2959 36.2741 16.326 36.2445 16.3374L36.2952 16.4626H36.2242L36.1822 16.3502H36.1353V16.4626V16.4628ZM36.1353 16.3015H36.1705C36.1837 16.3015 36.1982 16.3025 36.2098 16.2959C36.2203 16.2889 36.2257 16.2757 36.2257 16.263C36.2252 16.2513 36.2195 16.2404 36.2102 16.2337C36.1992 16.2271 36.181 16.2289 36.1691 16.2289H36.1353V16.3015H36.1353Z" fill="white"/>
</svg>
