<svg width="42" height="28" viewBox="0 0 42 28" fill="none" xmlns="http://www.w3.org/2000/svg">
<path d="M42 0H0V28H42V0Z" fill="white"/>
<path d="M9.06663 9.51178C8.61438 9.18843 8.02423 9.02637 7.29617 9.02637H4.47754C4.25435 9.02637 4.13104 9.14245 4.10762 9.37435L2.96258 16.8492C2.95068 16.9226 2.96834 16.9898 3.0154 17.0508C3.06219 17.112 3.12105 17.1424 3.19153 17.1424H4.53036C4.76519 17.1424 4.89426 17.0266 4.91795 16.7944L5.23499 14.7792C5.24657 14.6815 5.28787 14.6021 5.35836 14.541C5.42879 14.4799 5.51688 14.4399 5.62258 14.4217C5.72828 14.4035 5.82795 14.3944 5.92207 14.3944C6.01593 14.3944 6.12744 14.4006 6.25683 14.4127C6.3859 14.4249 6.46818 14.4309 6.50345 14.4309C7.51339 14.4309 8.30611 14.1349 8.88167 13.5424C9.45697 12.9501 9.74494 12.1287 9.74494 11.0782C9.74494 10.3575 9.51867 9.8354 9.06663 9.51155V9.51178ZM7.61333 11.7563C7.55442 12.1838 7.40193 12.4646 7.15531 12.599C6.90864 12.7336 6.55633 12.8004 6.09836 12.8004L5.51699 12.8188L5.81653 10.8584C5.8399 10.7242 5.9162 10.657 6.04549 10.657H6.3803C6.84984 10.657 7.19063 10.7274 7.40203 10.8676C7.61333 11.0082 7.68381 11.3045 7.61333 11.7563Z" fill="#003087"/>
<path d="M38.8118 9.02588H37.5083C37.3788 9.02588 37.3025 9.09308 37.2793 9.22742L36.1341 16.849L36.1165 16.8856C36.1165 16.947 36.14 17.0048 36.187 17.0598C36.2338 17.1146 36.2927 17.1421 36.3632 17.1421H37.526C37.7488 17.1421 37.8722 17.0263 37.896 16.7941L39.041 9.30073V9.28253C39.0409 9.11156 38.9643 9.02605 38.8118 9.02605V9.02588Z" fill="#009CDE"/>
<path d="M23.0628 11.9762C23.0628 11.9153 23.0392 11.8572 22.9925 11.8023C22.9454 11.7473 22.8925 11.7197 22.8339 11.7197H21.4775C21.348 11.7197 21.2424 11.7811 21.1603 11.9029L19.293 14.7611L18.5179 12.0129C18.4589 11.8176 18.3299 11.7197 18.1304 11.7197H16.809C16.7501 11.7197 16.6972 11.7473 16.6506 11.8023C16.6034 11.8572 16.5801 11.9153 16.5801 11.9762C16.5801 12.0008 16.6946 12.361 16.9236 13.0572C17.1525 13.7535 17.3992 14.5047 17.6635 15.3108C17.9277 16.1169 18.0656 16.5446 18.0774 16.5931C17.1143 17.9612 16.633 18.6941 16.633 18.7917C16.633 18.9506 16.7093 19.0299 16.862 19.0299H18.2184C18.3476 19.0299 18.4532 18.969 18.5356 18.8467L23.0278 12.1043C23.0511 12.0801 23.0628 12.0375 23.0628 11.9762V11.9762Z" fill="#003087"/>
<path d="M35.6941 11.7196H34.3552C34.1907 11.7196 34.0911 11.9211 34.0559 12.3242C33.7502 11.8359 33.1927 11.5913 32.3822 11.5913C31.5366 11.5913 30.8171 11.9211 30.2242 12.5807C29.631 13.2403 29.3346 14.0161 29.3346 14.9076C29.3346 15.6283 29.5371 16.2023 29.9422 16.6297C30.3474 17.0575 30.8905 17.2709 31.572 17.2709C31.9124 17.2709 32.2589 17.1975 32.6112 17.0511C32.9636 16.9045 33.2393 16.7092 33.4393 16.4648C33.4393 16.4771 33.4273 16.5319 33.4041 16.6296C33.3804 16.7275 33.3688 16.8009 33.3688 16.8494C33.3688 17.0451 33.4449 17.1425 33.5979 17.1425H34.8135C35.0363 17.1425 35.1657 17.0267 35.2008 16.7944L35.9232 12.0127C35.9347 11.9393 35.9172 11.8723 35.8703 11.8111C35.8232 11.7502 35.7646 11.7196 35.6941 11.7196ZM33.3952 15.3289C33.0957 15.6343 32.7345 15.7869 32.3118 15.7869C31.9711 15.7869 31.6953 15.6894 31.4838 15.4938C31.2723 15.2988 31.1666 15.03 31.1666 14.6877C31.1666 14.2361 31.3134 13.8542 31.6071 13.5427C31.9004 13.2312 32.2648 13.0755 32.6993 13.0755C33.0279 13.0755 33.301 13.1763 33.5184 13.3777C33.7355 13.5793 33.8445 13.8572 33.8445 14.2114C33.8444 14.6511 33.6946 15.0237 33.3952 15.3289Z" fill="#009CDE"/>
<path d="M15.6816 11.7196H14.3428C14.1781 11.7196 14.0785 11.9211 14.0432 12.3242C13.7261 11.8359 13.1682 11.5913 12.3697 11.5913C11.5241 11.5913 10.8046 11.9211 10.2116 12.5807C9.61844 13.2403 9.32202 14.0161 9.32202 14.9076C9.32202 15.6283 9.52464 16.2023 9.92984 16.6297C10.335 17.0575 10.8781 17.2709 11.5593 17.2709C11.888 17.2709 12.2288 17.1975 12.5811 17.0511C12.9334 16.9045 13.2153 16.7092 13.4267 16.4648C13.3795 16.6113 13.3562 16.7396 13.3562 16.8494C13.3562 17.0451 13.4325 17.1425 13.5852 17.1425H14.8007C15.0237 17.1425 15.153 17.0267 15.1883 16.7944L15.9105 12.0127C15.9221 11.9393 15.9045 11.8723 15.8577 11.8111C15.8107 11.7502 15.7521 11.7196 15.6816 11.7196ZM13.3827 15.338C13.0831 15.6376 12.7159 15.7869 12.2817 15.7869C11.9409 15.7869 11.6678 15.6894 11.4625 15.4938C11.2568 15.2988 11.1541 15.03 11.1541 14.6877C11.1541 14.2361 11.3009 13.8542 11.5946 13.5427C11.888 13.2312 12.2521 13.0755 12.6868 13.0755C13.0155 13.0755 13.2885 13.1763 13.506 13.3778C13.7231 13.5793 13.8319 13.8573 13.8319 14.2115C13.8319 14.6634 13.6822 15.0391 13.3827 15.338Z" fill="#003087"/>
<path d="M29.079 9.51178C28.6268 9.18843 28.0368 9.02637 27.3086 9.02637H24.5075C24.2726 9.02637 24.1433 9.14245 24.12 9.37435L22.9749 16.8492C22.963 16.9227 22.9806 16.9898 23.0277 17.0509C23.0743 17.112 23.1334 17.1424 23.2039 17.1424H24.6483C24.7893 17.1424 24.8832 17.0631 24.9302 16.9043L25.2474 14.7792C25.259 14.6815 25.3002 14.6021 25.3707 14.541C25.4412 14.4799 25.5292 14.44 25.635 14.4217C25.7406 14.4035 25.8402 14.3944 25.9345 14.3944C26.0283 14.3944 26.1398 14.4006 26.2691 14.4127C26.3982 14.4249 26.4807 14.4309 26.5157 14.4309C27.5258 14.4309 28.3184 14.1349 28.894 13.5424C29.4695 12.9501 29.7572 12.1287 29.7572 11.0782C29.7573 10.3576 29.5311 9.83545 29.079 9.51161V9.51178ZM27.2733 12.5257C27.0149 12.7089 26.6274 12.8004 26.1107 12.8004L25.5469 12.8188L25.8464 10.8584C25.8697 10.7242 25.946 10.657 26.0754 10.657H26.3924C26.6507 10.657 26.8562 10.6692 27.0091 10.6935C27.1616 10.7182 27.3086 10.7943 27.4495 10.9225C27.5905 11.0508 27.6609 11.2371 27.6609 11.4814C27.6609 11.9944 27.5316 12.3424 27.2733 12.5257Z" fill="#009CDE"/>
</svg>
