<svg width="43" height="28" viewBox="0 0 43 28" fill="none" xmlns="http://www.w3.org/2000/svg">
<path d="M43 0H0V28H43V0Z" fill="#0E4595"/>
<path d="M16.1636 19.529L18.0028 8.5664H20.9444L19.1039 19.529H16.1636ZM29.7312 8.80272C29.1485 8.58062 28.2352 8.34229 27.0949 8.34229C24.1883 8.34229 22.1408 9.82909 22.1234 11.9601C22.1069 13.5353 23.5851 14.4141 24.7008 14.9385C25.8458 15.4758 26.2307 15.8185 26.2253 16.2983C26.2181 17.0331 25.3109 17.3688 24.4655 17.3688C23.2881 17.3688 22.6626 17.2027 21.6966 16.7934L21.3175 16.6192L20.9047 19.0733C21.5917 19.3793 22.8623 19.6444 24.1814 19.6581C27.2735 19.6581 29.2807 18.1883 29.3037 15.9127C29.3146 14.6656 28.531 13.7166 26.8339 12.9342C25.8057 12.4271 25.176 12.0886 25.1827 11.5752C25.1827 11.1195 25.7157 10.6322 26.8673 10.6322C27.8292 10.6171 28.5261 10.8301 29.069 11.0522L29.3325 11.1787L29.7312 8.80272ZM37.3009 8.56623H35.0278C34.3237 8.56623 33.7967 8.7615 33.4875 9.47533L29.1189 19.5217H32.2078C32.2078 19.5217 32.7128 18.1709 32.827 17.8743C33.1647 17.8743 36.1653 17.879 36.5944 17.879C36.6823 18.2628 36.9521 19.5217 36.9521 19.5217H39.6818L37.3009 8.56589V8.56623ZM33.6945 15.6452C33.9377 15.0136 34.8665 12.5807 34.8665 12.5807C34.8491 12.6099 35.1079 11.946 35.2565 11.5344L35.4552 12.4796C35.4552 12.4796 36.0186 15.0964 36.1363 15.6452H33.6945ZM13.6664 8.56623L10.7865 16.0422L10.4796 14.523C9.94351 12.7717 8.27312 10.8743 6.40576 9.92434L9.03902 19.5115L12.1513 19.508L16.7823 8.56612H13.6664" fill="white"/>
<path d="M8.09943 8.56565H3.35615L3.3186 8.79374C7.00878 9.70117 9.45051 11.8941 10.4643 14.5287L9.43287 9.49094C9.25481 8.79682 8.73842 8.58968 8.09954 8.56543" fill="#F2AE14"/>
</svg>
